<mxfile host="Electron" agent="Mozilla/5.0 (Macintosh; Intel Mac OS X 10_15_7) AppleWebKit/537.36 (KHTML, like Gecko) draw.io/26.2.15 Chrome/134.0.6998.205 Electron/35.2.1 Safari/537.36" version="26.2.15">
  <diagram name="Page-1" id="-VYRWmol2rAduqmxvihU">
    <mxGraphModel dx="1194" dy="1195" grid="1" gridSize="10" guides="1" tooltips="1" connect="1" arrows="1" fold="1" page="1" pageScale="1" pageWidth="827" pageHeight="1169" math="0" shadow="0">
      <root>
        <mxCell id="0" />
        <mxCell id="1" parent="0" />
        <mxCell id="HOICahOCsCcUTaSJ7HOK-1" value="Cluster A" style="rounded=0;whiteSpace=wrap;html=1;verticalAlign=top;fontStyle=1;fillColor=#dae8fc;strokeColor=#6c8ebf;align=left;" vertex="1" parent="1">
          <mxGeometry x="120" y="160" width="220" height="310" as="geometry" />
        </mxCell>
        <mxCell id="HOICahOCsCcUTaSJ7HOK-2" value="Cluster B" style="rounded=0;whiteSpace=wrap;html=1;verticalAlign=top;fontStyle=1;fillColor=#e1d5e7;strokeColor=#9673a6;align=left;" vertex="1" parent="1">
          <mxGeometry x="490" y="160" width="220" height="310" as="geometry" />
        </mxCell>
        <mxCell id="HOICahOCsCcUTaSJ7HOK-3" value="External Webserver&amp;nbsp;&lt;div&gt;Logging all requests&lt;/div&gt;" style="rounded=0;whiteSpace=wrap;html=1;fillColor=#f5f5f5;fontColor=#333333;strokeColor=#666666;" vertex="1" parent="1">
          <mxGeometry x="300" y="540" width="180" height="60" as="geometry" />
        </mxCell>
        <mxCell id="HOICahOCsCcUTaSJ7HOK-14" style="edgeStyle=orthogonalEdgeStyle;rounded=0;orthogonalLoop=1;jettySize=auto;html=1;exitX=0.5;exitY=1;exitDx=0;exitDy=0;entryX=0;entryY=0.5;entryDx=0;entryDy=0;strokeWidth=3;" edge="1" parent="1" source="HOICahOCsCcUTaSJ7HOK-4" target="HOICahOCsCcUTaSJ7HOK-3">
          <mxGeometry relative="1" as="geometry" />
        </mxCell>
        <mxCell id="HOICahOCsCcUTaSJ7HOK-4" value="Curller (check Egress)&lt;div&gt;Call webserver with pod name and node name&lt;/div&gt;" style="rounded=0;whiteSpace=wrap;html=1;" vertex="1" parent="1">
          <mxGeometry x="150" y="360" width="170" height="60" as="geometry" />
        </mxCell>
        <mxCell id="HOICahOCsCcUTaSJ7HOK-5" value="" style="aspect=fixed;sketch=0;html=1;dashed=0;whitespace=wrap;verticalLabelPosition=bottom;verticalAlign=top;fillColor=#2875E2;strokeColor=#ffffff;points=[[0.005,0.63,0],[0.1,0.2,0],[0.9,0.2,0],[0.5,0,0],[0.995,0.63,0],[0.72,0.99,0],[0.5,1,0],[0.28,0.99,0]];shape=mxgraph.kubernetes.icon2;kubernetesLabel=1;prIcon=pod" vertex="1" parent="1">
          <mxGeometry x="130" y="330" width="50" height="48" as="geometry" />
        </mxCell>
        <mxCell id="HOICahOCsCcUTaSJ7HOK-10" value="simple http server &lt;br&gt;(check ingress)" style="rounded=0;whiteSpace=wrap;html=1;" vertex="1" parent="1">
          <mxGeometry x="150" y="260" width="170" height="60" as="geometry" />
        </mxCell>
        <mxCell id="HOICahOCsCcUTaSJ7HOK-11" value="" style="aspect=fixed;sketch=0;html=1;dashed=0;whitespace=wrap;verticalLabelPosition=bottom;verticalAlign=top;fillColor=#2875E2;strokeColor=#ffffff;points=[[0.005,0.63,0],[0.1,0.2,0],[0.9,0.2,0],[0.5,0,0],[0.995,0.63,0],[0.72,0.99,0],[0.5,1,0],[0.28,0.99,0]];shape=mxgraph.kubernetes.icon2;kubernetesLabel=1;prIcon=pod" vertex="1" parent="1">
          <mxGeometry x="130" y="230" width="50" height="48" as="geometry" />
        </mxCell>
        <mxCell id="HOICahOCsCcUTaSJ7HOK-7" value="Egress" style="rounded=0;whiteSpace=wrap;html=1;fillColor=#fff2cc;strokeColor=#d6b656;" vertex="1" parent="1">
          <mxGeometry x="127.5" y="435" width="202.5" height="30" as="geometry" />
        </mxCell>
        <mxCell id="HOICahOCsCcUTaSJ7HOK-19" style="edgeStyle=orthogonalEdgeStyle;rounded=0;orthogonalLoop=1;jettySize=auto;html=1;exitX=0.5;exitY=0.5;exitDx=0;exitDy=0;exitPerimeter=0;entryX=0.5;entryY=0;entryDx=0;entryDy=0;fontSize=11;strokeWidth=3;" edge="1" parent="1" source="HOICahOCsCcUTaSJ7HOK-15" target="HOICahOCsCcUTaSJ7HOK-6">
          <mxGeometry relative="1" as="geometry" />
        </mxCell>
        <mxCell id="HOICahOCsCcUTaSJ7HOK-15" value="Client" style="shape=umlActor;verticalLabelPosition=bottom;verticalAlign=top;html=1;outlineConnect=0;" vertex="1" parent="1">
          <mxGeometry x="370" y="10" width="30" height="60" as="geometry" />
        </mxCell>
        <mxCell id="HOICahOCsCcUTaSJ7HOK-6" value="Ingress" style="rounded=0;whiteSpace=wrap;html=1;fillColor=#d5e8d4;strokeColor=#82b366;" vertex="1" parent="1">
          <mxGeometry x="127.5" y="190" width="202.5" height="30" as="geometry" />
        </mxCell>
        <mxCell id="HOICahOCsCcUTaSJ7HOK-21" value="" style="shape=flexArrow;endArrow=classic;html=1;rounded=0;endWidth=56;endSize=11;width=50;fillColor=#60a917;strokeColor=#2D7600;" edge="1" parent="1">
          <mxGeometry width="50" height="50" relative="1" as="geometry">
            <mxPoint x="360" y="315" as="sourcePoint" />
            <mxPoint x="470" y="315" as="targetPoint" />
          </mxGeometry>
        </mxCell>
      </root>
    </mxGraphModel>
  </diagram>
</mxfile>
